<?xml version="1.0" encoding="UTF-8"?>
<svg width="50px" height="50px" viewBox="0 0 50 50" version="1.1" xmlns="http://www.w3.org/2000/svg" xmlns:xlink="http://www.w3.org/1999/xlink">
    <title>monologo</title>
    <g id="Page-1" stroke="none" stroke-width="1" fill="none" fill-rule="evenodd">
        <g id="monologo">
            <rect id="Rectangle" fill="#DAEAE5" fill-rule="nonzero" x="0" y="0" width="50" height="50" rx="5"></rect>
            <g id="Group" transform="translate(12.000000, 13.000000)">
                <path d="M2.6377709,12.4077763 C2.6377709,7.00838622 7.05882354,2.61546408 12.495418,2.61546408 C17.9381425,2.61546408 22.3591332,7.00838622 22.3591332,12.4077763 C22.3591332,13.969431 22.0061919,15.4523879 21.3126935,16.8154543 C21.1455108,17.1314741 21.1207431,17.4991393 21.2383901,17.8342188 L22.7058824,22.0476121 L17.4055728,21.1862427 C17.1455727,21.1450495 16.873065,21.1807093 16.6377709,21.2919926 C15.3374613,21.8945208 13.9442724,22.1994737 12.495418,22.1994737 C7.05882354,22.1994737 2.6377709,17.8071665 2.6377709,12.4077763 L2.6377709,12.4077763 Z M17.368421,23.8306036 L24.4582043,24.982785 C24.5263158,24.9944666 24.6006191,25 24.6687925,25 C24.6749846,24.9993852 24.6811145,25 24.6873064,25 C25.4117648,25 26,24.414687 26,23.6922681 C26,23.4684719 25.9442724,23.2582019 25.8452013,23.0737544 L23.9071207,17.4874577 C24.619195,15.9092027 24.996904,14.1649451 24.996904,12.4077763 C24.996904,5.56600759 19.3870588,0 12.495418,0 C5.60996903,0 0,5.56600759 0,12.4077763 C0,19.249545 5.60996903,24.8149379 12.495418,24.8149379 C14.1919505,24.8149379 15.8328792,24.4841621 17.368421,23.8306036 L17.368421,23.8306036 Z" id="Shape" fill="#012E47" fill-rule="nonzero"></path>
                <line x1="8.5" y1="8.5" x2="16.5" y2="8.5" id="Line" stroke="#012E47" stroke-width="2" stroke-linecap="round"></line>
                <line x1="8.5" y1="12.5" x2="12.5" y2="12.5" id="Line-Copy" stroke="#012E47" stroke-width="2" opacity="0.6262643" stroke-linecap="round"></line>
                <line x1="8.5" y1="16.5" x2="15.5" y2="16.5" id="Line-Copy-2" stroke="#012E47" stroke-width="2" opacity="0.299039" stroke-linecap="round"></line>
            </g>
        </g>
    </g>
</svg>